<svg width="24" height="24" viewBox="0 0 24 24" fill="none" xmlns="http://www.w3.org/2000/svg">
  <path d="M14.2 6.2C14.9 5.4 15.2 4.6 15.2 3.7C14.3 3.8 13.4 4.3 12.8 5C12.2 5.7 11.8 6.6 11.9 7.5C12.8 7.6 13.6 7.1 14.2 6.2Z" stroke="#384bff" stroke-width="1.75" stroke-linecap="round" stroke-linejoin="round"></path>
  <path d="M12.1 8.2C13.4 8.2 14 7.6 15.2 7.6C16.8 7.6 18.5 9 18.5 11.7C18.5 14.7 16.6 19.2 14.2 19.2C13.4 19.2 12.9 18.7 12.1 18.7C11.3 18.7 10.7 19.2 9.9 19.2C7.5 19.2 5.5 14.8 5.5 11.7C5.5 9.1 7.1 7.6 8.9 7.6C10.1 7.6 10.7 8.2 12.1 8.2Z" stroke="#384bff" stroke-width="1.75" stroke-linecap="round" stroke-linejoin="round"></path>
  <circle cx="16.9" cy="12.1" r="1.1" fill="#384bff" opacity="0.9"></circle>
  <circle cx="14.5" cy="14.4" r="1.1" fill="#384bff"></circle>
  <path d="M16.9 12.1L14.5 14.4" stroke="#384bff" stroke-width="1.75" stroke-linecap="round" opacity="0.35"></path>
</svg>
