<svg width="24" height="24" viewBox="0 0 24 24" fill="none" xmlns="http://www.w3.org/2000/svg">
  <path d="M12 4.5L18.5 7.2V12.2C18.5 15.9 15.9 18.9 12 20.2C8.1 18.9 5.5 15.9 5.5 12.2V7.2L12 4.5Z" stroke="#384bff" stroke-width="1.75" stroke-linejoin="round"></path>
  <path d="M10.2 12.2C10.2 11.2 11 10.4 12 10.4C13 10.4 13.8 11.2 13.8 12.2V14.4C13.8 15.4 13 16.2 12 16.2C11 16.2 10.2 15.4 10.2 14.4V12.2Z" stroke="#384bff" stroke-width="1.75" stroke-linejoin="round"></path>
  <circle cx="12" cy="9.2" r="1.15" fill="#384bff"></circle>
  <path d="M12 9.2V10.4" stroke="#384bff" stroke-width="1.75" stroke-linecap="round" opacity="0.55"></path>
  <circle cx="16.9" cy="9.2" r="1.1" fill="#384bff" opacity="0.9"></circle>
  <path d="M16.9 9.2L13.8 11.2" stroke="#384bff" stroke-width="1.75" stroke-linecap="round" opacity="0.35"></path>
</svg>
